# Blender v2.81 (sub 16) OBJ File: ''
# www.blender.org
mtllib cube.mtl
o Cube_Cube.002
v -1.000000 -2.000000 1.000000
v -1.000000 2.000000 1.000000
v -1.000000 -2.000000 -1.000000
v -1.000000 2.000000 -1.000000
v 1.000000 -2.000000 1.000000
v 1.000000 2.000000 1.000000
v 1.000000 -2.000000 -1.000000
v 1.000000 2.000000 -1.000000
vt 0.874532 0.499960
vt 0.624517 0.001831
vt 0.874517 0.001802
vt 0.625031 0.500461
vt 0.375017 0.000607
vt 0.625017 0.000578
vt 0.375241 0.500970
vt 0.125226 0.002234
vt 0.375226 0.002205
vt 0.374055 0.997956
vt 0.124040 0.500569
vt 0.374040 0.500540
vt 0.875993 0.997289
vt 0.625979 0.500545
vt 0.875979 0.500516
vt 0.625907 0.996042
vt 0.375893 0.500790
vt 0.625893 0.500761
vt 0.624532 0.499989
vt 0.375032 0.500490
vt 0.125241 0.500999
vt 0.124055 0.997985
vt 0.625993 0.997318
vt 0.375907 0.996070
vn -1.0000 0.0000 0.0000
vn 0.0000 0.0000 -1.0000
vn 1.0000 0.0000 0.0000
vn 0.0000 0.0000 1.0000
vn 0.0000 -1.0000 0.0000
vn 0.0000 1.0000 0.0000
usemtl None
s off
f 2/1/1 3/2/1 1/3/1
f 4/4/2 7/5/2 3/6/2
f 8/7/3 5/8/3 7/9/3
f 6/10/4 1/11/4 5/12/4
f 7/13/5 1/14/5 3/15/5
f 4/16/6 6/17/6 8/18/6
f 2/1/1 4/19/1 3/2/1
f 4/4/2 8/20/2 7/5/2
f 8/7/3 6/21/3 5/8/3
f 6/10/4 2/22/4 1/11/4
f 7/13/5 5/23/5 1/14/5
f 4/16/6 2/24/6 6/17/6
